# xmcd CD database file
#
# Track frame offsets:
#	150
#	31988
#	45596
#	89018
#	103629
#	121646
#	138284
#	155249
#	175070
#	210885
#	243085
#	263317
#	286433
#	322151
#
# Disc length: 4513 seconds
#
# Revision: 1
# Processed by: cddbd v1.5.2PL0 Copyright (c) Steve Scherf et al.
# Submitted via: CDex 1.70beta2
#
DISCID=b7119f0e
DTITLE=The Modern Jazz Quartet - 8 Classic Albums - CD2
DYEAR=1955
DGENRE=Jazz
TTITLE0=Django
TTITLE1=One Bass Hit
TTITLE2=La Ronde Suite
TTITLE3=The Queen's Fancy
TTITLE4=Delaunay's Dilemma
TTITLE5=Autumn in New York
TTITLE6=But Not for Me
TTITLE7=Milano
TTITLE8=Ralph's New Blues
TTITLE9=All of You
TTITLE10=I'll Remember April
TTITLE11=Gershwin Medley
TTITLE12=Softly, As In a Morning Sunrise
TTITLE13=Concorde
EXTD=YEAR: 1955
EXTT0=
EXTT1=
EXTT2=
EXTT3=
EXTT4=
EXTT5=
EXTT6=
EXTT7=
EXTT8=
EXTT9=
EXTT10=
EXTT11=
EXTT12=
EXTT13=
PLAYORDER=
